<mxfile host="65bd71144e">
    <diagram id="FsBhyJwkqdstGvdzfWPU" name="ページ1">
        <mxGraphModel dx="485" dy="401" grid="1" gridSize="10" guides="1" tooltips="1" connect="1" arrows="1" fold="1" page="1" pageScale="1" pageWidth="827" pageHeight="1169" math="0" shadow="0">
            <root>
                <mxCell id="0"/>
                <mxCell id="1" parent="0"/>
                <mxCell id="3" value="Singleton" style="swimlane;" vertex="1" parent="1">
                    <mxGeometry x="286" y="200" width="191" height="144" as="geometry"/>
                </mxCell>
                <mxCell id="4" value="&lt;div style=&quot;font-size: 13px&quot;&gt;- id: Integer&lt;/div&gt;&lt;div style=&quot;font-size: 13px&quot;&gt;- instance: String&lt;/div&gt;&lt;hr id=&quot;null&quot;&gt;+ public getInstantce&lt;br&gt;+ getID&lt;br&gt;+ __clone" style="text;html=1;align=left;verticalAlign=top;resizable=0;points=[];autosize=1;strokeColor=none;fontSize=13;" vertex="1" parent="3">
                    <mxGeometry x="7" y="29" width="140" height="100" as="geometry"/>
                </mxCell>
            </root>
        </mxGraphModel>
    </diagram>
</mxfile>